<svg width="18" height="18" viewBox="0 0 18 18" fill="none" xmlns="http://www.w3.org/2000/svg">
<path d="M9 1.80005C5.2333 1.80005 2.13725 4.71104 1.83047 8.40005H0L2.4 12L4.8 8.40005H3.0293C3.32941 5.36281 5.88206 3.00005 9 3.00005C10.49 3.00005 11.8476 3.5401 12.8965 4.43677C12.9559 4.49122 13.0256 4.53315 13.1015 4.56008C13.1775 4.587 13.258 4.59835 13.3385 4.59347C13.4189 4.58858 13.4975 4.56755 13.5696 4.53163C13.6417 4.49571 13.7058 4.44564 13.7582 4.3844C13.8105 4.32316 13.85 4.252 13.8743 4.17518C13.8985 4.09835 13.9071 4.01743 13.8994 3.93723C13.8917 3.85704 13.8679 3.77921 13.8295 3.7084C13.7911 3.63758 13.7388 3.57523 13.6758 3.52505C12.4183 2.45011 10.7812 1.80005 9 1.80005ZM15.6 6.00005L13.2 9.60005H14.9707C14.6706 12.6373 12.1179 15 9 15C7.50996 15 6.15244 14.46 5.10352 13.5633C5.04414 13.5089 4.97441 13.4669 4.89847 13.44C4.82254 13.4131 4.74197 13.4017 4.66155 13.4066C4.58114 13.4115 4.50253 13.4325 4.43041 13.4685C4.3583 13.5044 4.29416 13.5545 4.24181 13.6157C4.18947 13.6769 4.14999 13.7481 4.12574 13.8249C4.10148 13.9017 4.09294 13.9827 4.10063 14.0629C4.10832 14.1431 4.13208 14.2209 4.1705 14.2917C4.20891 14.3625 4.26119 14.4249 4.32422 14.475C5.58169 15.55 7.21884 16.2 9 16.2C12.7667 16.2 15.8628 13.2891 16.1695 9.60005H18L15.6 6.00005Z" fill="#333333" fill-opacity="0.6"/>
</svg>
